<?xml version="1.0" standalone="no"?>
<!DOCTYPE svg PUBLIC "-//W3C//DTD SVG 20010904//EN"
 "http://www.w3.org/TR/2001/REC-SVG-20010904/DTD/svg10.dtd">
<svg version="1.0" xmlns="http://www.w3.org/2000/svg"
 width="1085.000000pt" height="1280.000000pt" viewBox="0 0 1085.000000 1280.000000"
 preserveAspectRatio="xMidYMid meet">
<metadata>
Created by potrace 1.15, written by Peter Selinger 2001-2017
</metadata>
<g transform="translate(0.000000,1280.000000) scale(0.100000,-0.100000)"
fill="#000000" stroke="none">
<path d="M5085 12793 c-11 -3 -72 -26 -135 -50 -231 -90 -248 -95 -283 -76
-22 11 -66 18 -138 21 -91 4 -120 1 -215 -23 -187 -47 -225 -75 -238 -177 -10
-75 -47 -108 -118 -107 -75 0 -118 18 -146 59 -12 19 -38 43 -58 54 -30 16
-41 17 -79 7 -24 -6 -69 -11 -99 -11 -52 0 -56 -2 -63 -27 -5 -16 -6 -77 -4
-138 2 -60 4 -139 5 -175 l1 -65 -57 0 c-67 1 -110 26 -118 71 -9 49 -65 45
-125 -8 -41 -35 -70 -87 -84 -148 -12 -53 -2 -77 49 -113 47 -33 63 -77 58
-156 -7 -124 -112 -76 -133 61 -4 23 -15 45 -31 57 -22 17 -29 18 -72 6 -60
-15 -87 -29 -136 -71 -46 -40 -84 -49 -130 -34 -48 15 -103 80 -111 127 -3 21
-8 52 -11 70 -5 34 -41 69 -79 79 -38 9 -97 -26 -113 -68 -13 -33 -12 -38 8
-66 19 -26 22 -39 17 -79 -10 -89 -45 -160 -112 -231 -70 -75 -116 -151 -139
-231 -17 -59 -12 -78 29 -105 31 -20 33 -58 5 -86 -11 -11 -23 -20 -28 -20
-12 0 -52 30 -52 40 0 5 -9 34 -21 65 -15 40 -29 59 -51 71 -32 16 -32 18 -12
97 13 53 -58 100 -134 90 -34 -5 -49 -1 -81 20 -41 27 -140 138 -143 160 -1 7
-2 71 -2 142 l-1 130 -35 3 c-22 1 -50 -6 -75 -20 -35 -20 -48 -40 -108 -158
-38 -76 -72 -158 -77 -189 -20 -107 -96 -213 -168 -234 -37 -11 -53 -23 -75
-55 -17 -26 -36 -42 -48 -42 -11 0 -50 16 -88 35 -91 47 -138 47 -211 0 -44
-28 -65 -35 -107 -35 -33 0 -70 -9 -105 -25 -74 -34 -118 -33 -162 6 l-35 30
-25 -39 c-25 -40 -61 -59 -114 -60 -33 -1 -71 -28 -83 -60 -22 -57 -4 -108 77
-216 41 -56 78 -114 81 -131 4 -19 33 -55 81 -102 l75 -73 -7 -92 c-7 -112
-13 -118 -139 -183 -83 -42 -97 -47 -142 -42 -38 4 -69 -1 -130 -22 -82 -29
-96 -41 -73 -68 7 -9 40 -68 73 -132 74 -142 110 -174 205 -184 83 -9 100 -25
100 -91 0 -46 -9 -65 -80 -185 -44 -74 -80 -145 -80 -157 0 -47 30 -174 49
-213 47 -91 109 -141 292 -232 130 -66 186 -73 278 -35 74 30 111 33 111 11 0
-9 10 -29 21 -45 36 -48 10 -101 -111 -232 l-62 -68 19 -62 19 -63 103 3 c79
2 111 7 139 22 20 11 52 23 72 26 52 9 189 77 235 117 29 25 46 50 58 88 9 30
34 85 55 124 35 63 43 72 88 88 66 25 81 40 98 101 24 80 118 165 257 231 35
17 38 16 195 -24 268 -70 303 -84 403 -161 182 -141 340 -227 506 -275 100
-29 127 -49 201 -149 56 -74 71 -127 84 -306 15 -191 27 -231 104 -333 34 -46
73 -106 85 -132 32 -69 51 -168 49 -261 -2 -68 1 -86 24 -130 33 -63 42 -70
103 -84 67 -15 85 -33 85 -86 0 -53 41 -105 106 -135 88 -42 248 -233 261
-312 5 -34 3 -37 -33 -54 -48 -22 -57 -58 -22 -90 39 -36 61 -36 103 -3 49 39
83 38 172 -4 168 -81 245 -150 287 -257 15 -39 40 -91 54 -115 23 -38 35 -46
81 -60 65 -19 145 -68 211 -130 36 -34 56 -63 75 -113 23 -60 34 -75 109 -140
80 -69 129 -122 223 -237 43 -52 60 -62 213 -119 86 -33 163 -97 201 -170 32
-59 66 -67 142 -32 87 40 106 41 209 14 130 -35 185 -42 203 -27 22 19 80 3
120 -32 47 -41 128 -164 215 -328 40 -74 78 -141 85 -148 13 -15 68 -18 141
-8 47 7 54 5 112 -35 35 -23 71 -53 80 -67 16 -25 16 -25 -51 -87 -98 -89 -91
-123 16 -80 41 16 83 25 118 25 30 0 63 6 74 14 11 7 43 20 71 28 44 13 55 13
77 1 43 -22 118 -145 158 -257 17 -50 17 -51 -8 -119 -25 -65 -25 -70 -10
-102 13 -26 32 -42 89 -69 46 -22 112 -68 178 -125 58 -49 117 -97 132 -106
27 -16 28 -15 70 23 57 52 83 65 118 57 67 -15 154 -155 172 -275 25 -173 53
-248 138 -381 69 -107 89 -164 105 -298 14 -123 46 -265 72 -315 8 -17 30 -45
49 -63 37 -35 39 -47 23 -124 -17 -78 -43 -99 -121 -97 -72 2 -123 -19 -188
-79 -39 -35 -53 -73 -27 -73 7 0 25 -13 40 -28 32 -33 34 -68 11 -150 -35
-120 -86 -196 -144 -213 -37 -11 -41 -10 -59 12 -16 20 -28 24 -78 24 -53 0
-74 -8 -248 -93 l-190 -93 -60 18 c-33 10 -91 18 -130 18 -64 0 -75 -3 -135
-40 -77 -48 -104 -60 -190 -88 -58 -19 -91 -21 -295 -22 l-230 -1 -59 -28
c-82 -40 -132 -33 -266 34 -154 77 -172 92 -193 149 -10 30 -25 52 -36 56 -21
6 -137 -10 -187 -26 -17 -5 -44 -23 -60 -40 -24 -25 -27 -32 -16 -49 19 -31
15 -37 -40 -64 -77 -38 -90 -35 -168 40 l-69 66 -38 -23 c-119 -71 -159 -107
-186 -166 -14 -32 -29 -85 -32 -118 -4 -33 -14 -68 -23 -78 -14 -15 -14 -26
-4 -75 14 -67 36 -99 122 -179 l65 -60 116 9 116 10 79 -40 c44 -22 94 -43
113 -47 20 -4 56 -28 90 -59 98 -90 204 -159 286 -186 20 -7 66 -39 103 -71
37 -33 102 -78 146 -100 78 -39 79 -39 195 -39 110 0 119 -2 166 -29 79 -45
140 -105 201 -197 65 -97 78 -108 219 -175 101 -49 107 -50 168 -44 76 8 149
-7 199 -42 27 -18 45 -24 63 -19 30 8 32 28 8 103 -16 50 -16 56 1 109 18 57
31 72 140 167 39 33 39 34 32 89 -6 50 -11 58 -44 79 -27 18 -48 46 -80 109
-77 155 -92 282 -39 338 37 39 64 107 78 193 14 94 36 135 149 289 85 114 121
176 164 283 9 21 20 36 24 33 20 -12 35 -98 29 -162 -8 -80 7 -120 55 -158 34
-25 39 -26 182 -26 81 0 156 4 166 10 28 15 59 76 76 149 9 36 29 90 46 120
44 77 134 164 185 179 54 16 138 92 154 139 12 37 9 93 -13 249 -9 65 -9 88 2
113 20 48 95 108 200 159 81 40 104 47 155 47 43 0 70 -6 95 -21 42 -24 56
-22 74 15 28 53 30 114 6 184 -20 60 -22 78 -16 194 4 70 8 148 9 173 2 43 0
46 -45 75 -99 63 -195 128 -255 170 -44 31 -76 46 -110 50 -95 12 -103 16
-128 53 -13 21 -31 53 -39 73 -15 36 -15 37 39 150 43 88 55 124 55 161 0 62
13 93 59 143 43 46 59 73 72 117 16 56 132 229 188 280 l56 51 94 -6 c52 -4
99 -11 103 -15 5 -5 -2 -23 -17 -41 -15 -17 -25 -38 -22 -45 3 -8 50 -41 104
-72 97 -58 99 -58 203 -66 190 -15 289 -34 317 -60 47 -44 103 -180 103 -252
0 -70 18 -111 68 -160 52 -51 93 -73 198 -107 95 -30 104 -26 104 54 0 83 22
155 66 212 47 62 51 92 24 168 -49 136 -105 208 -271 348 -103 88 -122 109
-148 164 -35 74 -46 83 -167 131 -49 20 -143 62 -209 94 -106 51 -135 71 -243
168 -144 129 -188 154 -487 272 -271 108 -747 345 -791 395 -37 42 -47 79 -33
129 8 31 21 42 87 81 131 76 180 135 167 204 -12 66 -41 119 -76 137 -36 18
-7 18 -469 -7 -269 -14 -357 -9 -436 26 -32 14 -68 34 -79 45 -11 10 -51 31
-90 46 -122 48 -165 82 -188 150 -12 33 -24 45 -77 74 -48 26 -115 86 -261
230 -184 183 -248 259 -296 355 -36 71 -123 325 -138 403 -19 99 -51 195 -136
414 -38 98 -72 193 -76 211 -15 79 -64 127 -152 147 -71 17 -167 83 -321 221
-201 181 -233 203 -339 229 -35 9 -61 29 -138 108 -130 132 -176 194 -207 280
-58 162 -105 483 -86 596 12 76 23 87 51 52 26 -33 62 -32 67 2 3 21 22 32 22
12 0 -47 73 57 96 137 18 63 10 85 -41 109 -43 20 -116 106 -220 258 l-77 113
40 79 c58 115 92 156 171 208 55 37 78 47 103 44 44 -4 50 -33 9 -41 -62 -13
-197 -169 -189 -218 3 -22 6 -20 32 21 28 43 43 52 325 193 203 101 306 148
329 147 l32 0 0 68 c0 55 4 72 23 94 l22 28 80 -24 c44 -13 98 -31 119 -40
l39 -16 -23 -25 c-37 -39 -14 -52 46 -26 64 29 82 47 90 88 11 60 41 54 127
-26 48 -44 102 -132 90 -145 -4 -3 -17 -6 -29 -6 -28 0 -42 -19 -23 -31 21
-13 96 -11 134 5 18 8 41 25 50 39 15 24 14 27 -29 89 -57 82 -72 95 -164 143
-92 48 -114 80 -87 122 10 14 20 55 23 90 4 60 4 63 -17 63 -12 0 -32 -7 -45
-15 -22 -14 -25 -14 -40 0 -9 9 -16 19 -16 23 0 17 48 82 83 112 43 37 67 78
67 113 0 21 -10 27 -80 51 -55 19 -89 26 -110 21 -26 -6 -31 -3 -40 20 -5 14
-10 33 -10 41 0 21 82 98 164 154 82 55 110 83 126 124 8 23 8 32 -2 42 -22
22 -126 44 -303 64 -244 28 -415 59 -512 94 -23 8 -92 22 -155 31 -73 10 -132
25 -166 41 -46 23 -58 35 -102 111 -67 113 -88 140 -126 162 -38 23 -61 55
-70 99 -6 28 -3 33 31 53 39 23 59 60 50 90 -6 19 -14 21 -50 12z m275 -4076
c0 -13 -8 -31 -19 -41 -16 -15 -20 -15 -31 -1 -10 12 -9 20 4 40 21 32 46 33
46 2z"/>
<path d="M2937 7625 c-33 -33 -36 -97 -4 -103 12 -3 22 7 32 32 18 43 18 48 2
70 -13 17 -14 17 -30 1z"/>
<path d="M3444 7340 c-26 -42 -62 -55 -121 -41 -38 9 -57 9 -87 -1 -47 -16
-61 -36 -52 -72 10 -39 48 -51 116 -36 111 25 114 24 154 -10 20 -18 40 -29
44 -26 12 13 15 172 3 195 -16 29 -37 26 -57 -9z"/>
<path d="M3158 7024 c-10 -21 -9 -27 3 -35 21 -13 27 -11 39 12 9 15 8 24 -1
35 -17 20 -28 17 -41 -12z"/>
<path d="M3885 6760 c-18 -20 -18 -21 12 -52 35 -35 63 -33 63 4 0 28 -26 68
-44 68 -7 0 -21 -9 -31 -20z"/>
<path d="M3362 6728 c-23 -23 -14 -48 17 -48 35 0 42 8 34 38 -6 24 -32 29
-51 10z"/>
<path d="M2353 5392 c-6 -4 -19 -25 -27 -47 -13 -30 -32 -50 -77 -80 -64 -42
-189 -168 -189 -190 0 -23 -60 -64 -117 -81 -31 -9 -71 -30 -92 -49 -53 -48
-76 -56 -146 -57 -89 0 -126 15 -174 72 -23 28 -47 50 -52 50 -16 0 -36 -58
-54 -155 -14 -75 -15 -95 -4 -128 10 -31 10 -45 0 -70 -22 -53 -23 -71 -7 -92
15 -20 15 -20 31 3 22 31 69 29 100 -4 29 -31 108 -210 131 -295 25 -96 21
-216 -9 -314 -20 -62 -47 -179 -47 -202 0 -2 33 -2 73 -1 l72 3 3 -45 c4 -48
-13 -120 -28 -120 -5 0 -13 8 -19 18 -8 13 -14 15 -28 6 -15 -9 -19 -31 -24
-140 -4 -71 -14 -153 -22 -183 -9 -29 -19 -77 -22 -105 -6 -43 -3 -55 14 -78
28 -35 26 -60 -5 -97 -28 -33 -27 -36 22 -109 l26 -37 -38 -11 c-52 -15 -61
-32 -46 -91 18 -65 44 -107 69 -111 16 -2 25 8 42 47 31 74 49 69 102 -31 l44
-83 55 2 c32 2 72 -4 97 -13 36 -14 47 -15 74 -4 44 19 136 111 145 146 4 16
2 80 -5 143 -8 75 -9 117 -3 123 7 7 33 6 79 -1 115 -20 171 -41 223 -82 57
-45 88 -59 131 -59 42 0 65 28 73 91 4 30 24 144 45 254 25 126 42 246 46 325
3 69 15 187 26 263 22 159 19 187 -36 290 -19 38 -35 76 -35 85 0 30 42 103
92 157 51 57 88 133 88 185 0 16 -13 50 -29 75 -17 27 -32 68 -36 98 -14 100
-76 251 -131 317 l-28 33 27 21 c32 26 34 55 6 116 -39 85 -61 105 -210 179
-136 68 -170 79 -196 63z"/>
<path d="M1540 5211 c-31 -45 -72 -139 -65 -151 11 -18 25 -10 39 24 15 37 41
56 75 56 17 0 21 6 21 31 0 37 -16 69 -35 69 -7 0 -23 -13 -35 -29z"/>
<path d="M5780 4990 c-24 -24 -26 -48 -4 -57 21 -8 44 21 44 54 0 28 -14 29
-40 3z"/>
<path d="M6595 4776 c-23 -35 -6 -62 44 -71 44 -7 81 7 81 31 0 8 -11 26 -25
39 -32 33 -79 33 -100 1z"/>
<path d="M6919 4551 l-23 -18 22 -7 c25 -8 62 9 62 29 0 21 -33 19 -61 -4z"/>
<path d="M1490 2912 c-22 -18 -22 -19 -6 -50 37 -71 88 -60 90 20 1 41 0 43
-30 46 -19 2 -39 -4 -54 -16z"/>
<path d="M7816 2478 c-8 -12 -13 -25 -10 -30 10 -15 43 -8 54 12 21 40 -18 56
-44 18z"/>
<path d="M5965 2380 c-22 -25 -9 -43 26 -38 18 2 24 9 24 28 0 32 -26 37 -50
10z"/>
<path d="M7464 2226 c-15 -12 -17 -18 -8 -33 17 -27 63 -41 74 -23 32 51 -17
92 -66 56z"/>
<path d="M7557 2152 c-23 -25 -21 -55 3 -77 11 -10 20 -28 20 -41 0 -33 42
-79 64 -71 12 5 16 13 11 25 -4 9 -11 42 -17 72 -18 99 -46 131 -81 92z"/>
<path d="M4949 1529 c-9 -17 -8 -25 5 -37 15 -15 17 -15 32 0 13 12 14 20 5
37 -7 11 -16 21 -21 21 -5 0 -14 -10 -21 -21z"/>
<path d="M5177 1484 c-16 -17 -6 -44 20 -50 32 -8 58 6 58 32 0 15 -8 20 -35
22 -20 2 -39 0 -43 -4z"/>
<path d="M4852 218 c-20 -20 -13 -54 17 -87 33 -35 70 -40 94 -13 24 27 21 50
-12 83 -31 31 -77 39 -99 17z"/>
</g>
</svg>
